<?xml version="1.0" encoding="UTF-8" standalone="no"?>
<!-- Created with Inkscape (http://www.inkscape.org/) -->

<svg
   xmlns:dc="http://purl.org/dc/elements/1.1/"
   xmlns:cc="http://creativecommons.org/ns#"
   xmlns:rdf="http://www.w3.org/1999/02/22-rdf-syntax-ns#"
   xmlns:svg="http://www.w3.org/2000/svg"
   xmlns="http://www.w3.org/2000/svg"
   xmlns:sodipodi="http://sodipodi.sourceforge.net/DTD/sodipodi-0.dtd"
   xmlns:inkscape="http://www.inkscape.org/namespaces/inkscape"
   width="37.061199"
   height="39.879925"
   id="svg2"
   version="1.1"
   inkscape:version="0.48.0 r9654"
   sodipodi:docname="edit score icon.svg"
   inkscape:export-filename="C:\Users\Joshua\Documents\Visual Studio 2010\Projects\Three on Three Round Robin Scheduler\edit score icon.png"
   inkscape:export-xdpi="90"
   inkscape:export-ydpi="90">
  <defs
     id="defs4" />
  <sodipodi:namedview
     id="base"
     pagecolor="#ffffff"
     bordercolor="#666666"
     borderopacity="1.0"
     inkscape:pageopacity="0.0"
     inkscape:pageshadow="2"
     inkscape:zoom="5.6"
     inkscape:cx="40.010585"
     inkscape:cy="38.207382"
     inkscape:document-units="px"
     inkscape:current-layer="layer1"
     showgrid="false"
     inkscape:window-width="1280"
     inkscape:window-height="748"
     inkscape:window-x="632"
     inkscape:window-y="1192"
     inkscape:window-maximized="1"
     fit-margin-top="0"
     fit-margin-left="0"
     fit-margin-right="0"
     fit-margin-bottom="0" />
  <metadata
     id="metadata7">
    <rdf:RDF>
      <cc:Work
         rdf:about="">
        <dc:format>image/svg+xml</dc:format>
        <dc:type
           rdf:resource="http://purl.org/dc/dcmitype/StillImage" />
        <dc:title></dc:title>
      </cc:Work>
    </rdf:RDF>
  </metadata>
  <g
     inkscape:label="Layer 1"
     inkscape:groupmode="layer"
     id="layer1"
     transform="translate(669.8395,-536.01037)">
    <path
       sodipodi:type="arc"
       style="opacity:0.1;fill:#c86b00;fill-opacity:1;stroke:#cc6d00;stroke-width:0;stroke-miterlimit:4;stroke-opacity:1;stroke-dasharray:none"
       id="path2989"
       sodipodi:cx="-862.85712"
       sodipodi:cy="223.79076"
       sodipodi:rx="60"
       sodipodi:ry="60"
       d="m -802.85712,223.79076 c 0,33.13708 -26.86291,60 -60,60 -33.13708,0 -60,-26.86292 -60,-60 0,-33.13709 26.86292,-60 60,-60 33.13709,0 60,26.86291 60,60 z"
       transform="matrix(0.03061224,0,0,0.03061224,-621.05818,554.34567)" />
    <path
       transform="matrix(0.03061224,0,0,0.03061224,-621.05818,562.9171)"
       sodipodi:type="arc"
       style="opacity:0.5;fill:#c86b00;fill-opacity:1;stroke:#cc6d00;stroke-width:0;stroke-miterlimit:4;stroke-opacity:1;stroke-dasharray:none"
       id="path2989-4"
       sodipodi:cx="-862.85712"
       sodipodi:cy="223.79076"
       sodipodi:rx="60"
       sodipodi:ry="60"
       d="m -802.85712,223.79076 c 0,33.13708 -26.86291,60 -60,60 -33.13708,0 -60,-26.86292 -60,-60 0,-33.13709 26.86292,-60 60,-60 33.13709,0 60,26.86291 60,60 z"
       inkscape:export-filename="C:\Users\Joshua\Documents\Visual Studio 2010\Projects\Three on Three Round Robin Scheduler\edit score icon.png"
       inkscape:export-xdpi="89.999992"
       inkscape:export-ydpi="89.999992" />
    <path
       transform="matrix(0.03061224,0,0,0.03061224,-621.05818,545.77424)"
       sodipodi:type="arc"
       style="opacity:0.5;fill:#c86b00;fill-opacity:1;stroke:#cc6d00;stroke-width:0;stroke-miterlimit:4;stroke-opacity:1;stroke-dasharray:none"
       id="path2989-1-4"
       sodipodi:cx="-862.85712"
       sodipodi:cy="223.79076"
       sodipodi:rx="60"
       sodipodi:ry="60"
       d="m -802.85712,223.79076 c 0,33.13708 -26.86291,60 -60,60 -33.13708,0 -60,-26.86292 -60,-60 0,-33.13709 26.86292,-60 60,-60 33.13709,0 60,26.86291 60,60 z"
       inkscape:export-filename="C:\Users\Joshua\Documents\Visual Studio 2010\Projects\Three on Three Round Robin Scheduler\edit score icon.png"
       inkscape:export-xdpi="89.999992"
       inkscape:export-ydpi="89.999992" />
    <path
       sodipodi:type="arc"
       style="opacity:0.5;fill:#c86b00;fill-opacity:1;stroke:#cc6d00;stroke-width:0;stroke-miterlimit:4;stroke-opacity:1;stroke-dasharray:none"
       id="path2989-9"
       sodipodi:cx="-862.85712"
       sodipodi:cy="223.79076"
       sodipodi:rx="60"
       sodipodi:ry="60"
       d="m -802.85712,223.79076 c 0,33.13708 -26.86291,60 -60,60 -33.13708,0 -60,-26.86292 -60,-60 0,-33.13709 26.86292,-60 60,-60 33.13709,0 60,26.86291 60,60 z"
       transform="matrix(0.03061224,0,0,0.03061224,-612.48676,554.34567)"
       inkscape:export-filename="C:\Users\Joshua\Documents\Visual Studio 2010\Projects\Three on Three Round Robin Scheduler\edit score icon.png"
       inkscape:export-xdpi="89.999992"
       inkscape:export-ydpi="89.999992" />
    <path
       transform="matrix(0.03061224,0,0,0.03061224,-612.48676,562.9171)"
       sodipodi:type="arc"
       style="opacity:0.1;fill:#c86b00;fill-opacity:1;stroke:#cc6d00;stroke-width:0;stroke-miterlimit:4;stroke-opacity:1;stroke-dasharray:none"
       id="path2989-4-9"
       sodipodi:cx="-862.85712"
       sodipodi:cy="223.79076"
       sodipodi:rx="60"
       sodipodi:ry="60"
       d="m -802.85712,223.79076 c 0,33.13708 -26.86291,60 -60,60 -33.13708,0 -60,-26.86292 -60,-60 0,-33.13709 26.86292,-60 60,-60 33.13709,0 60,26.86291 60,60 z" />
    <path
       transform="matrix(0.03061224,0,0,0.03061224,-612.48676,545.77424)"
       sodipodi:type="arc"
       style="opacity:0.1;fill:#c86b00;fill-opacity:1;stroke:#cc6d00;stroke-width:0;stroke-miterlimit:4;stroke-opacity:1;stroke-dasharray:none"
       id="path2989-1-4-3"
       sodipodi:cx="-862.85712"
       sodipodi:cy="223.79076"
       sodipodi:rx="60"
       sodipodi:ry="60"
       d="m -802.85712,223.79076 c 0,33.13708 -26.86291,60 -60,60 -33.13708,0 -60,-26.86292 -60,-60 0,-33.13709 26.86292,-60 60,-60 33.13709,0 60,26.86291 60,60 z" />
    <path
       sodipodi:type="arc"
       style="opacity:0.5;fill:#c86b00;fill-opacity:1;stroke:#cc6d00;stroke-width:0;stroke-miterlimit:4;stroke-opacity:1;stroke-dasharray:none"
       id="path2989-10"
       sodipodi:cx="-862.85712"
       sodipodi:cy="223.79076"
       sodipodi:rx="60"
       sodipodi:ry="60"
       d="m -802.85712,223.79076 c 0,33.13708 -26.86291,60 -60,60 -33.13708,0 -60,-26.86292 -60,-60 0,-33.13709 26.86292,-60 60,-60 33.13709,0 60,26.86291 60,60 z"
       transform="matrix(0.03061224,0,0,0.03061224,-621.05818,550.05995)"
       inkscape:export-xdpi="89.999992"
       inkscape:export-ydpi="89.999992"
       inkscape:export-filename="C:\Users\Joshua\Documents\Visual Studio 2010\Projects\Three on Three Round Robin Scheduler\edit score icon.png" />
    <path
       transform="matrix(0.03061224,0,0,0.03061224,-621.05818,567.20282)"
       sodipodi:type="arc"
       style="opacity:0.1;fill:#c86b00;fill-opacity:1;stroke:#cc6d00;stroke-width:0;stroke-miterlimit:4;stroke-opacity:1;stroke-dasharray:none"
       id="path2989-1-5"
       sodipodi:cx="-862.85712"
       sodipodi:cy="223.79076"
       sodipodi:rx="60"
       sodipodi:ry="60"
       d="m -802.85712,223.79076 c 0,33.13708 -26.86291,60 -60,60 -33.13708,0 -60,-26.86292 -60,-60 0,-33.13709 26.86292,-60 60,-60 33.13709,0 60,26.86291 60,60 z" />
    <path
       transform="matrix(0.03061224,0,0,0.03061224,-621.05818,558.63138)"
       sodipodi:type="arc"
       style="opacity:0.5;fill:#c86b00;fill-opacity:1;stroke:#cc6d00;stroke-width:0;stroke-miterlimit:4;stroke-opacity:1;stroke-dasharray:none"
       id="path2989-4-8"
       sodipodi:cx="-862.85712"
       sodipodi:cy="223.79076"
       sodipodi:rx="60"
       sodipodi:ry="60"
       d="m -802.85712,223.79076 c 0,33.13708 -26.86291,60 -60,60 -33.13708,0 -60,-26.86292 -60,-60 0,-33.13709 26.86292,-60 60,-60 33.13709,0 60,26.86291 60,60 z"
       inkscape:export-filename="C:\Users\Joshua\Documents\Visual Studio 2010\Projects\Three on Three Round Robin Scheduler\edit score icon.png"
       inkscape:export-xdpi="89.999992"
       inkscape:export-ydpi="89.999992" />
    <path
       transform="matrix(0.03061224,0,0,0.03061224,-621.05818,541.48853)"
       sodipodi:type="arc"
       style="opacity:0.1;fill:#c86b00;fill-opacity:1;stroke:#cc6d00;stroke-width:0;stroke-miterlimit:4;stroke-opacity:1;stroke-dasharray:none"
       id="path2989-1-4-1"
       sodipodi:cx="-862.85712"
       sodipodi:cy="223.79076"
       sodipodi:rx="60"
       sodipodi:ry="60"
       d="m -802.85712,223.79076 c 0,33.13708 -26.86291,60 -60,60 -33.13708,0 -60,-26.86292 -60,-60 0,-33.13709 26.86292,-60 60,-60 33.13709,0 60,26.86291 60,60 z" />
    <path
       sodipodi:type="arc"
       style="opacity:0.1;fill:#c86b00;fill-opacity:1;stroke:#cc6d00;stroke-width:0;stroke-miterlimit:4;stroke-opacity:1;stroke-dasharray:none"
       id="path2989-9-9"
       sodipodi:cx="-862.85712"
       sodipodi:cy="223.79076"
       sodipodi:rx="60"
       sodipodi:ry="60"
       d="m -802.85712,223.79076 c 0,33.13708 -26.86291,60 -60,60 -33.13708,0 -60,-26.86292 -60,-60 0,-33.13709 26.86292,-60 60,-60 33.13709,0 60,26.86291 60,60 z"
       transform="matrix(0.03061224,0,0,0.03061224,-612.48676,550.05995)" />
    <path
       transform="matrix(0.03061224,0,0,0.03061224,-612.48676,567.20282)"
       sodipodi:type="arc"
       style="opacity:0.5;fill:#c86b00;fill-opacity:1;stroke:#cc6d00;stroke-width:0;stroke-miterlimit:4;stroke-opacity:1;stroke-dasharray:none"
       id="path2989-1-1-0"
       sodipodi:cx="-862.85712"
       sodipodi:cy="223.79076"
       sodipodi:rx="60"
       sodipodi:ry="60"
       d="m -802.85712,223.79076 c 0,33.13708 -26.86291,60 -60,60 -33.13708,0 -60,-26.86292 -60,-60 0,-33.13709 26.86292,-60 60,-60 33.13709,0 60,26.86291 60,60 z"
       inkscape:export-filename="C:\Users\Joshua\Documents\Visual Studio 2010\Projects\Three on Three Round Robin Scheduler\edit score icon.png"
       inkscape:export-xdpi="89.999992"
       inkscape:export-ydpi="89.999992" />
    <path
       transform="matrix(0.03061224,0,0,0.03061224,-612.48676,558.63138)"
       sodipodi:type="arc"
       style="opacity:0.1;fill:#c86b00;fill-opacity:1;stroke:#cc6d00;stroke-width:0;stroke-miterlimit:4;stroke-opacity:1;stroke-dasharray:none"
       id="path2989-4-9-5"
       sodipodi:cx="-862.85712"
       sodipodi:cy="223.79076"
       sodipodi:rx="60"
       sodipodi:ry="60"
       d="m -802.85712,223.79076 c 0,33.13708 -26.86291,60 -60,60 -33.13708,0 -60,-26.86292 -60,-60 0,-33.13709 26.86292,-60 60,-60 33.13709,0 60,26.86291 60,60 z" />
    <path
       transform="matrix(0.03061224,0,0,0.03061224,-612.48676,541.48853)"
       sodipodi:type="arc"
       style="opacity:0.5;fill:#c86b00;fill-opacity:1;stroke:#cc6d00;stroke-width:0;stroke-miterlimit:4;stroke-opacity:1;stroke-dasharray:none"
       id="path2989-1-4-3-4"
       sodipodi:cx="-862.85712"
       sodipodi:cy="223.79076"
       sodipodi:rx="60"
       sodipodi:ry="60"
       d="m -802.85712,223.79076 c 0,33.13708 -26.86291,60 -60,60 -33.13708,0 -60,-26.86292 -60,-60 0,-33.13709 26.86292,-60 60,-60 33.13709,0 60,26.86291 60,60 z"
       inkscape:export-filename="C:\Users\Joshua\Documents\Visual Studio 2010\Projects\Three on Three Round Robin Scheduler\edit score icon.png"
       inkscape:export-xdpi="89.999992"
       inkscape:export-ydpi="89.999992" />
    <path
       sodipodi:type="arc"
       style="opacity:0.5;fill:#c86b00;fill-opacity:1;stroke:#cc6d00;stroke-width:0;stroke-miterlimit:4;stroke-opacity:1;stroke-dasharray:none"
       id="path2989-7"
       sodipodi:cx="-862.85712"
       sodipodi:cy="223.79076"
       sodipodi:rx="60"
       sodipodi:ry="60"
       d="m -802.85712,223.79076 c 0,33.13708 -26.86291,60 -60,60 -33.13708,0 -60,-26.86292 -60,-60 0,-33.13709 26.86292,-60 60,-60 33.13709,0 60,26.86291 60,60 z"
       transform="matrix(0.03061224,0,0,0.03061224,-616.77247,554.34567)"
       inkscape:export-filename="C:\Users\Joshua\Documents\Visual Studio 2010\Projects\Three on Three Round Robin Scheduler\edit score icon.png"
       inkscape:export-xdpi="89.999992"
       inkscape:export-ydpi="89.999992" />
    <path
       transform="matrix(0.03061224,0,0,0.03061224,-616.77247,562.9171)"
       sodipodi:type="arc"
       style="opacity:0.1;fill:#c86b00;fill-opacity:1;stroke:#cc6d00;stroke-width:0;stroke-miterlimit:4;stroke-opacity:1;stroke-dasharray:none"
       id="path2989-4-3"
       sodipodi:cx="-862.85712"
       sodipodi:cy="223.79076"
       sodipodi:rx="60"
       sodipodi:ry="60"
       d="m -802.85712,223.79076 c 0,33.13708 -26.86291,60 -60,60 -33.13708,0 -60,-26.86292 -60,-60 0,-33.13709 26.86292,-60 60,-60 33.13709,0 60,26.86291 60,60 z" />
    <path
       transform="matrix(0.03061224,0,0,0.03061224,-616.77247,545.77424)"
       sodipodi:type="arc"
       style="opacity:0.1;fill:#c86b00;fill-opacity:1;stroke:#cc6d00;stroke-width:0;stroke-miterlimit:4;stroke-opacity:1;stroke-dasharray:none"
       id="path2989-1-4-6"
       sodipodi:cx="-862.85712"
       sodipodi:cy="223.79076"
       sodipodi:rx="60"
       sodipodi:ry="60"
       d="m -802.85712,223.79076 c 0,33.13708 -26.86291,60 -60,60 -33.13708,0 -60,-26.86292 -60,-60 0,-33.13709 26.86292,-60 60,-60 33.13709,0 60,26.86291 60,60 z" />
    <path
       sodipodi:type="arc"
       style="opacity:0.1;fill:#c86b00;fill-opacity:1;stroke:#cc6d00;stroke-width:0;stroke-miterlimit:4;stroke-opacity:1;stroke-dasharray:none"
       id="path2989-9-0"
       sodipodi:cx="-862.85712"
       sodipodi:cy="223.79076"
       sodipodi:rx="60"
       sodipodi:ry="60"
       d="m -802.85712,223.79076 c 0,33.13708 -26.86291,60 -60,60 -33.13708,0 -60,-26.86292 -60,-60 0,-33.13709 26.86292,-60 60,-60 33.13709,0 60,26.86291 60,60 z"
       transform="matrix(0.03061224,0,0,0.03061224,-608.20105,554.34567)" />
    <path
       transform="matrix(0.03061224,0,0,0.03061224,-608.20105,562.9171)"
       sodipodi:type="arc"
       style="opacity:0.5;fill:#c86b00;fill-opacity:1;stroke:#cc6d00;stroke-width:0;stroke-miterlimit:4;stroke-opacity:1;stroke-dasharray:none"
       id="path2989-4-9-8"
       sodipodi:cx="-862.85712"
       sodipodi:cy="223.79076"
       sodipodi:rx="60"
       sodipodi:ry="60"
       d="m -802.85712,223.79076 c 0,33.13708 -26.86291,60 -60,60 -33.13708,0 -60,-26.86292 -60,-60 0,-33.13709 26.86292,-60 60,-60 33.13709,0 60,26.86291 60,60 z"
       inkscape:export-filename="C:\Users\Joshua\Documents\Visual Studio 2010\Projects\Three on Three Round Robin Scheduler\edit score icon.png"
       inkscape:export-xdpi="89.999992"
       inkscape:export-ydpi="89.999992" />
    <path
       transform="matrix(0.03061224,0,0,0.03061224,-608.20105,545.77424)"
       sodipodi:type="arc"
       style="opacity:0.5;fill:#c86b00;fill-opacity:1;stroke:#cc6d00;stroke-width:0;stroke-miterlimit:4;stroke-opacity:1;stroke-dasharray:none"
       id="path2989-1-4-3-6"
       sodipodi:cx="-862.85712"
       sodipodi:cy="223.79076"
       sodipodi:rx="60"
       sodipodi:ry="60"
       d="m -802.85712,223.79076 c 0,33.13708 -26.86291,60 -60,60 -33.13708,0 -60,-26.86292 -60,-60 0,-33.13709 26.86292,-60 60,-60 33.13709,0 60,26.86291 60,60 z"
       inkscape:export-filename="C:\Users\Joshua\Documents\Visual Studio 2010\Projects\Three on Three Round Robin Scheduler\edit score icon.png"
       inkscape:export-xdpi="89.999992"
       inkscape:export-ydpi="89.999992" />
    <path
       sodipodi:type="arc"
       style="opacity:0.1;fill:#c86b00;fill-opacity:1;stroke:#cc6d00;stroke-width:0;stroke-miterlimit:4;stroke-opacity:1;stroke-dasharray:none"
       id="path2989-10-6"
       sodipodi:cx="-862.85712"
       sodipodi:cy="223.79076"
       sodipodi:rx="60"
       sodipodi:ry="60"
       d="m -802.85712,223.79076 c 0,33.13708 -26.86291,60 -60,60 -33.13708,0 -60,-26.86292 -60,-60 0,-33.13709 26.86292,-60 60,-60 33.13709,0 60,26.86291 60,60 z"
       transform="matrix(0.03061224,0,0,0.03061224,-616.77247,550.05995)" />
    <path
       transform="matrix(0.03061224,0,0,0.03061224,-616.77247,567.20282)"
       sodipodi:type="arc"
       style="opacity:0.5;fill:#c86b00;fill-opacity:1;stroke:#cc6d00;stroke-width:0;stroke-miterlimit:4;stroke-opacity:1;stroke-dasharray:none"
       id="path2989-1-5-0"
       sodipodi:cx="-862.85712"
       sodipodi:cy="223.79076"
       sodipodi:rx="60"
       sodipodi:ry="60"
       d="m -802.85712,223.79076 c 0,33.13708 -26.86291,60 -60,60 -33.13708,0 -60,-26.86292 -60,-60 0,-33.13709 26.86292,-60 60,-60 33.13709,0 60,26.86291 60,60 z"
       inkscape:export-filename="C:\Users\Joshua\Documents\Visual Studio 2010\Projects\Three on Three Round Robin Scheduler\edit score icon.png"
       inkscape:export-xdpi="89.999992"
       inkscape:export-ydpi="89.999992" />
    <path
       transform="matrix(0.03061224,0,0,0.03061224,-616.77247,558.63138)"
       sodipodi:type="arc"
       style="opacity:0.1;fill:#c86b00;fill-opacity:1;stroke:#cc6d00;stroke-width:0;stroke-miterlimit:4;stroke-opacity:1;stroke-dasharray:none"
       id="path2989-4-8-9"
       sodipodi:cx="-862.85712"
       sodipodi:cy="223.79076"
       sodipodi:rx="60"
       sodipodi:ry="60"
       d="m -802.85712,223.79076 c 0,33.13708 -26.86291,60 -60,60 -33.13708,0 -60,-26.86292 -60,-60 0,-33.13709 26.86292,-60 60,-60 33.13709,0 60,26.86291 60,60 z" />
    <path
       transform="matrix(0.03061224,0,0,0.03061224,-616.77247,541.48853)"
       sodipodi:type="arc"
       style="opacity:0.5;fill:#c86b00;fill-opacity:1;stroke:#cc6d00;stroke-width:0;stroke-miterlimit:4;stroke-opacity:1;stroke-dasharray:none"
       id="path2989-1-4-1-9"
       sodipodi:cx="-862.85712"
       sodipodi:cy="223.79076"
       sodipodi:rx="60"
       sodipodi:ry="60"
       d="m -802.85712,223.79076 c 0,33.13708 -26.86291,60 -60,60 -33.13708,0 -60,-26.86292 -60,-60 0,-33.13709 26.86292,-60 60,-60 33.13709,0 60,26.86291 60,60 z"
       inkscape:export-filename="C:\Users\Joshua\Documents\Visual Studio 2010\Projects\Three on Three Round Robin Scheduler\edit score icon.png"
       inkscape:export-xdpi="89.999992"
       inkscape:export-ydpi="89.999992" />
    <path
       sodipodi:type="arc"
       style="opacity:0.5;fill:#c86b00;fill-opacity:1;stroke:#cc6d00;stroke-width:0;stroke-miterlimit:4;stroke-opacity:1;stroke-dasharray:none"
       id="path2989-9-9-3"
       sodipodi:cx="-862.85712"
       sodipodi:cy="223.79076"
       sodipodi:rx="60"
       sodipodi:ry="60"
       d="m -802.85712,223.79076 c 0,33.13708 -26.86291,60 -60,60 -33.13708,0 -60,-26.86292 -60,-60 0,-33.13709 26.86292,-60 60,-60 33.13709,0 60,26.86291 60,60 z"
       transform="matrix(0.02996368,0,0,0.02996368,-608.76065,550.20509)"
       inkscape:export-filename="C:\Users\Joshua\Documents\Visual Studio 2010\Projects\Three on Three Round Robin Scheduler\edit score icon.png"
       inkscape:export-xdpi="89.999992"
       inkscape:export-ydpi="89.999992" />
    <path
       transform="matrix(0.03061224,0,0,0.03061224,-608.20105,567.20282)"
       sodipodi:type="arc"
       style="opacity:0.1;fill:#c86b00;fill-opacity:1;stroke:#cc6d00;stroke-width:0;stroke-miterlimit:4;stroke-opacity:1;stroke-dasharray:none"
       id="path2989-1-1-0-2"
       sodipodi:cx="-862.85712"
       sodipodi:cy="223.79076"
       sodipodi:rx="60"
       sodipodi:ry="60"
       d="m -802.85712,223.79076 c 0,33.13708 -26.86291,60 -60,60 -33.13708,0 -60,-26.86292 -60,-60 0,-33.13709 26.86292,-60 60,-60 33.13709,0 60,26.86291 60,60 z" />
    <path
       transform="matrix(0.03061224,0,0,0.03061224,-608.20105,558.63138)"
       sodipodi:type="arc"
       style="opacity:0.5;fill:#c86b00;fill-opacity:1;stroke:#cc6d00;stroke-width:0;stroke-miterlimit:4;stroke-opacity:1;stroke-dasharray:none"
       id="path2989-4-9-5-8"
       sodipodi:cx="-862.85712"
       sodipodi:cy="223.79076"
       sodipodi:rx="60"
       sodipodi:ry="60"
       d="m -802.85712,223.79076 c 0,33.13708 -26.86291,60 -60,60 -33.13708,0 -60,-26.86292 -60,-60 0,-33.13709 26.86292,-60 60,-60 33.13709,0 60,26.86291 60,60 z"
       inkscape:export-filename="C:\Users\Joshua\Documents\Visual Studio 2010\Projects\Three on Three Round Robin Scheduler\edit score icon.png"
       inkscape:export-xdpi="89.999992"
       inkscape:export-ydpi="89.999992" />
    <path
       transform="matrix(0.03061224,0,0,0.03061224,-608.20105,541.48853)"
       sodipodi:type="arc"
       style="opacity:0.1;fill:#c86b00;fill-opacity:1;stroke:#cc6d00;stroke-width:0;stroke-miterlimit:4;stroke-opacity:1;stroke-dasharray:none"
       id="path2989-1-4-3-4-0"
       sodipodi:cx="-862.85712"
       sodipodi:cy="223.79076"
       sodipodi:rx="60"
       sodipodi:ry="60"
       d="m -802.85712,223.79076 c 0,33.13708 -26.86291,60 -60,60 -33.13708,0 -60,-26.86292 -60,-60 0,-33.13709 26.86292,-60 60,-60 33.13709,0 60,26.86291 60,60 z" />
    <path
       sodipodi:type="arc"
       style="opacity:0.1;fill:#c86b00;fill-opacity:1;stroke:#cc6d00;stroke-width:0;stroke-miterlimit:4;stroke-opacity:1;stroke-dasharray:none"
       id="path2989-3"
       sodipodi:cx="-862.85712"
       sodipodi:cy="223.79076"
       sodipodi:rx="60"
       sodipodi:ry="60"
       d="m -802.85712,223.79076 c 0,33.13708 -26.86291,60 -60,60 -33.13708,0 -60,-26.86292 -60,-60 0,-33.13709 26.86292,-60 60,-60 33.13709,0 60,26.86291 60,60 z"
       transform="matrix(0.03061224,0,0,0.03061224,-641.58878,554.34567)" />
    <path
       transform="matrix(0.03061224,0,0,0.03061224,-641.58878,562.9171)"
       sodipodi:type="arc"
       style="opacity:0.5;fill:#c86b00;fill-opacity:1;stroke:#cc6d00;stroke-width:0;stroke-miterlimit:4;stroke-opacity:1;stroke-dasharray:none"
       id="path2989-4-7"
       sodipodi:cx="-862.85712"
       sodipodi:cy="223.79076"
       sodipodi:rx="60"
       sodipodi:ry="60"
       d="m -802.85712,223.79076 c 0,33.13708 -26.86291,60 -60,60 -33.13708,0 -60,-26.86292 -60,-60 0,-33.13709 26.86292,-60 60,-60 33.13709,0 60,26.86291 60,60 z"
       inkscape:export-filename="C:\Users\Joshua\Documents\Visual Studio 2010\Projects\Three on Three Round Robin Scheduler\edit score icon.png"
       inkscape:export-xdpi="89.999992"
       inkscape:export-ydpi="89.999992" />
    <path
       transform="matrix(0.03061224,0,0,0.03061224,-641.58878,545.77424)"
       sodipodi:type="arc"
       style="opacity:0.5;fill:#c86b00;fill-opacity:1;stroke:#cc6d00;stroke-width:0;stroke-miterlimit:4;stroke-opacity:1;stroke-dasharray:none"
       id="path2989-1-4-7"
       sodipodi:cx="-862.85712"
       sodipodi:cy="223.79076"
       sodipodi:rx="60"
       sodipodi:ry="60"
       d="m -802.85712,223.79076 c 0,33.13708 -26.86291,60 -60,60 -33.13708,0 -60,-26.86292 -60,-60 0,-33.13709 26.86292,-60 60,-60 33.13709,0 60,26.86291 60,60 z"
       inkscape:export-filename="C:\Users\Joshua\Documents\Visual Studio 2010\Projects\Three on Three Round Robin Scheduler\edit score icon.png"
       inkscape:export-xdpi="89.999992"
       inkscape:export-ydpi="89.999992" />
    <path
       sodipodi:type="arc"
       style="opacity:0.5;fill:#c86b00;fill-opacity:1;stroke:#cc6d00;stroke-width:0;stroke-miterlimit:4;stroke-opacity:1;stroke-dasharray:none"
       id="path2989-9-3"
       sodipodi:cx="-862.85712"
       sodipodi:cy="223.79076"
       sodipodi:rx="60"
       sodipodi:ry="60"
       d="m -802.85712,223.79076 c 0,33.13708 -26.86291,60 -60,60 -33.13708,0 -60,-26.86292 -60,-60 0,-33.13709 26.86292,-60 60,-60 33.13709,0 60,26.86291 60,60 z"
       transform="matrix(0.03061224,0,0,0.03061224,-633.01736,554.34567)"
       inkscape:export-filename="C:\Users\Joshua\Documents\Visual Studio 2010\Projects\Three on Three Round Robin Scheduler\edit score icon.png"
       inkscape:export-xdpi="89.999992"
       inkscape:export-ydpi="89.999992" />
    <path
       transform="matrix(0.03061224,0,0,0.03061224,-633.01736,562.9171)"
       sodipodi:type="arc"
       style="opacity:0.1;fill:#c86b00;fill-opacity:1;stroke:#cc6d00;stroke-width:0;stroke-miterlimit:4;stroke-opacity:1;stroke-dasharray:none"
       id="path2989-4-9-3"
       sodipodi:cx="-862.85712"
       sodipodi:cy="223.79076"
       sodipodi:rx="60"
       sodipodi:ry="60"
       d="m -802.85712,223.79076 c 0,33.13708 -26.86291,60 -60,60 -33.13708,0 -60,-26.86292 -60,-60 0,-33.13709 26.86292,-60 60,-60 33.13709,0 60,26.86291 60,60 z" />
    <path
       transform="matrix(0.03061224,0,0,0.03061224,-633.01736,545.77424)"
       sodipodi:type="arc"
       style="opacity:0.1;fill:#c86b00;fill-opacity:1;stroke:#cc6d00;stroke-width:0;stroke-miterlimit:4;stroke-opacity:1;stroke-dasharray:none"
       id="path2989-1-4-3-2"
       sodipodi:cx="-862.85712"
       sodipodi:cy="223.79076"
       sodipodi:rx="60"
       sodipodi:ry="60"
       d="m -802.85712,223.79076 c 0,33.13708 -26.86291,60 -60,60 -33.13708,0 -60,-26.86292 -60,-60 0,-33.13709 26.86292,-60 60,-60 33.13709,0 60,26.86291 60,60 z" />
    <path
       sodipodi:type="arc"
       style="opacity:0.5;fill:#c86b00;fill-opacity:1;stroke:#cc6d00;stroke-width:0;stroke-miterlimit:4;stroke-opacity:1;stroke-dasharray:none"
       id="path2989-10-0"
       sodipodi:cx="-862.85712"
       sodipodi:cy="223.79076"
       sodipodi:rx="60"
       sodipodi:ry="60"
       d="m -802.85712,223.79076 c 0,33.13708 -26.86291,60 -60,60 -33.13708,0 -60,-26.86292 -60,-60 0,-33.13709 26.86292,-60 60,-60 33.13709,0 60,26.86291 60,60 z"
       transform="matrix(0.03061224,0,0,0.03061224,-641.58878,550.05995)"
       inkscape:export-xdpi="89.999992"
       inkscape:export-ydpi="89.999992"
       inkscape:export-filename="C:\Users\Joshua\Documents\Visual Studio 2010\Projects\Three on Three Round Robin Scheduler\edit score icon.png" />
    <path
       transform="matrix(0.03061224,0,0,0.03061224,-641.58878,567.20282)"
       sodipodi:type="arc"
       style="opacity:0.1;fill:#c86b00;fill-opacity:1;stroke:#cc6d00;stroke-width:0;stroke-miterlimit:4;stroke-opacity:1;stroke-dasharray:none"
       id="path2989-1-5-9"
       sodipodi:cx="-862.85712"
       sodipodi:cy="223.79076"
       sodipodi:rx="60"
       sodipodi:ry="60"
       d="m -802.85712,223.79076 c 0,33.13708 -26.86291,60 -60,60 -33.13708,0 -60,-26.86292 -60,-60 0,-33.13709 26.86292,-60 60,-60 33.13709,0 60,26.86291 60,60 z" />
    <path
       transform="matrix(0.03061224,0,0,0.03061224,-641.58878,558.63138)"
       sodipodi:type="arc"
       style="opacity:0.5;fill:#c86b00;fill-opacity:1;stroke:#cc6d00;stroke-width:0;stroke-miterlimit:4;stroke-opacity:1;stroke-dasharray:none"
       id="path2989-4-8-2"
       sodipodi:cx="-862.85712"
       sodipodi:cy="223.79076"
       sodipodi:rx="60"
       sodipodi:ry="60"
       d="m -802.85712,223.79076 c 0,33.13708 -26.86291,60 -60,60 -33.13708,0 -60,-26.86292 -60,-60 0,-33.13709 26.86292,-60 60,-60 33.13709,0 60,26.86291 60,60 z"
       inkscape:export-filename="C:\Users\Joshua\Documents\Visual Studio 2010\Projects\Three on Three Round Robin Scheduler\edit score icon.png"
       inkscape:export-xdpi="89.999992"
       inkscape:export-ydpi="89.999992" />
    <path
       transform="matrix(0.03061224,0,0,0.03061224,-641.58878,541.48853)"
       sodipodi:type="arc"
       style="opacity:0.1;fill:#c86b00;fill-opacity:1;stroke:#cc6d00;stroke-width:0;stroke-miterlimit:4;stroke-opacity:1;stroke-dasharray:none"
       id="path2989-1-4-1-7"
       sodipodi:cx="-862.85712"
       sodipodi:cy="223.79076"
       sodipodi:rx="60"
       sodipodi:ry="60"
       d="m -802.85712,223.79076 c 0,33.13708 -26.86291,60 -60,60 -33.13708,0 -60,-26.86292 -60,-60 0,-33.13709 26.86292,-60 60,-60 33.13709,0 60,26.86291 60,60 z" />
    <path
       sodipodi:type="arc"
       style="opacity:0.1;fill:#c86b00;fill-opacity:1;stroke:#cc6d00;stroke-width:0;stroke-miterlimit:4;stroke-opacity:1;stroke-dasharray:none"
       id="path2989-9-9-7"
       sodipodi:cx="-862.85712"
       sodipodi:cy="223.79076"
       sodipodi:rx="60"
       sodipodi:ry="60"
       d="m -802.85712,223.79076 c 0,33.13708 -26.86291,60 -60,60 -33.13708,0 -60,-26.86292 -60,-60 0,-33.13709 26.86292,-60 60,-60 33.13709,0 60,26.86291 60,60 z"
       transform="matrix(0.03061224,0,0,0.03061224,-633.01736,550.05995)" />
    <path
       transform="matrix(0.03061224,0,0,0.03061224,-633.01736,567.20282)"
       sodipodi:type="arc"
       style="opacity:0.5;fill:#c86b00;fill-opacity:1;stroke:#cc6d00;stroke-width:0;stroke-miterlimit:4;stroke-opacity:1;stroke-dasharray:none"
       id="path2989-1-1-0-1"
       sodipodi:cx="-862.85712"
       sodipodi:cy="223.79076"
       sodipodi:rx="60"
       sodipodi:ry="60"
       d="m -802.85712,223.79076 c 0,33.13708 -26.86291,60 -60,60 -33.13708,0 -60,-26.86292 -60,-60 0,-33.13709 26.86292,-60 60,-60 33.13709,0 60,26.86291 60,60 z"
       inkscape:export-filename="C:\Users\Joshua\Documents\Visual Studio 2010\Projects\Three on Three Round Robin Scheduler\edit score icon.png"
       inkscape:export-xdpi="89.999992"
       inkscape:export-ydpi="89.999992" />
    <path
       transform="matrix(0.03061224,0,0,0.03061224,-633.01736,558.63138)"
       sodipodi:type="arc"
       style="opacity:0.1;fill:#c86b00;fill-opacity:1;stroke:#cc6d00;stroke-width:0;stroke-miterlimit:4;stroke-opacity:1;stroke-dasharray:none"
       id="path2989-4-9-5-89"
       sodipodi:cx="-862.85712"
       sodipodi:cy="223.79076"
       sodipodi:rx="60"
       sodipodi:ry="60"
       d="m -802.85712,223.79076 c 0,33.13708 -26.86291,60 -60,60 -33.13708,0 -60,-26.86292 -60,-60 0,-33.13709 26.86292,-60 60,-60 33.13709,0 60,26.86291 60,60 z" />
    <path
       transform="matrix(0.03061224,0,0,0.03061224,-633.01736,541.48853)"
       sodipodi:type="arc"
       style="opacity:0.5;fill:#c86b00;fill-opacity:1;stroke:#cc6d00;stroke-width:0;stroke-miterlimit:4;stroke-opacity:1;stroke-dasharray:none"
       id="path2989-1-4-3-4-2"
       sodipodi:cx="-862.85712"
       sodipodi:cy="223.79076"
       sodipodi:rx="60"
       sodipodi:ry="60"
       d="m -802.85712,223.79076 c 0,33.13708 -26.86291,60 -60,60 -33.13708,0 -60,-26.86292 -60,-60 0,-33.13709 26.86292,-60 60,-60 33.13709,0 60,26.86291 60,60 z"
       inkscape:export-filename="C:\Users\Joshua\Documents\Visual Studio 2010\Projects\Three on Three Round Robin Scheduler\edit score icon.png"
       inkscape:export-xdpi="89.999992"
       inkscape:export-ydpi="89.999992" />
    <path
       sodipodi:type="arc"
       style="opacity:0.5;fill:#c86b00;fill-opacity:1;stroke:#cc6d00;stroke-width:0;stroke-miterlimit:4;stroke-opacity:1;stroke-dasharray:none"
       id="path2989-7-1"
       sodipodi:cx="-862.85712"
       sodipodi:cy="223.79076"
       sodipodi:rx="60"
       sodipodi:ry="60"
       d="m -802.85712,223.79076 c 0,33.13708 -26.86291,60 -60,60 -33.13708,0 -60,-26.86292 -60,-60 0,-33.13709 26.86292,-60 60,-60 33.13709,0 60,26.86291 60,60 z"
       transform="matrix(0.03061224,0,0,0.03061224,-637.30307,554.34567)"
       inkscape:export-filename="C:\Users\Joshua\Documents\Visual Studio 2010\Projects\Three on Three Round Robin Scheduler\edit score icon.png"
       inkscape:export-xdpi="89.999992"
       inkscape:export-ydpi="89.999992" />
    <path
       transform="matrix(0.03061224,0,0,0.03061224,-637.30307,562.9171)"
       sodipodi:type="arc"
       style="opacity:0.1;fill:#c86b00;fill-opacity:1;stroke:#cc6d00;stroke-width:0;stroke-miterlimit:4;stroke-opacity:1;stroke-dasharray:none"
       id="path2989-4-3-4"
       sodipodi:cx="-862.85712"
       sodipodi:cy="223.79076"
       sodipodi:rx="60"
       sodipodi:ry="60"
       d="m -802.85712,223.79076 c 0,33.13708 -26.86291,60 -60,60 -33.13708,0 -60,-26.86292 -60,-60 0,-33.13709 26.86292,-60 60,-60 33.13709,0 60,26.86291 60,60 z" />
    <path
       transform="matrix(0.03061224,0,0,0.03061224,-637.30307,545.77424)"
       sodipodi:type="arc"
       style="opacity:0.1;fill:#c86b00;fill-opacity:1;stroke:#cc6d00;stroke-width:0;stroke-miterlimit:4;stroke-opacity:1;stroke-dasharray:none"
       id="path2989-1-4-6-7"
       sodipodi:cx="-862.85712"
       sodipodi:cy="223.79076"
       sodipodi:rx="60"
       sodipodi:ry="60"
       d="m -802.85712,223.79076 c 0,33.13708 -26.86291,60 -60,60 -33.13708,0 -60,-26.86292 -60,-60 0,-33.13709 26.86292,-60 60,-60 33.13709,0 60,26.86291 60,60 z" />
    <path
       sodipodi:type="arc"
       style="opacity:0.1;fill:#c86b00;fill-opacity:1;stroke:#cc6d00;stroke-width:0;stroke-miterlimit:4;stroke-opacity:1;stroke-dasharray:none"
       id="path2989-9-0-7"
       sodipodi:cx="-862.85712"
       sodipodi:cy="223.79076"
       sodipodi:rx="60"
       sodipodi:ry="60"
       d="m -802.85712,223.79076 c 0,33.13708 -26.86291,60 -60,60 -33.13708,0 -60,-26.86292 -60,-60 0,-33.13709 26.86292,-60 60,-60 33.13709,0 60,26.86291 60,60 z"
       transform="matrix(0.03061224,0,0,0.03061224,-628.73165,554.34567)" />
    <path
       transform="matrix(0.03061224,0,0,0.03061224,-628.73165,562.9171)"
       sodipodi:type="arc"
       style="opacity:0.5;fill:#c86b00;fill-opacity:1;stroke:#cc6d00;stroke-width:0;stroke-miterlimit:4;stroke-opacity:1;stroke-dasharray:none"
       id="path2989-4-9-8-3"
       sodipodi:cx="-862.85712"
       sodipodi:cy="223.79076"
       sodipodi:rx="60"
       sodipodi:ry="60"
       d="m -802.85712,223.79076 c 0,33.13708 -26.86291,60 -60,60 -33.13708,0 -60,-26.86292 -60,-60 0,-33.13709 26.86292,-60 60,-60 33.13709,0 60,26.86291 60,60 z"
       inkscape:export-filename="C:\Users\Joshua\Documents\Visual Studio 2010\Projects\Three on Three Round Robin Scheduler\edit score icon.png"
       inkscape:export-xdpi="89.999992"
       inkscape:export-ydpi="89.999992" />
    <path
       transform="matrix(0.03061224,0,0,0.03061224,-628.73165,545.77424)"
       sodipodi:type="arc"
       style="opacity:0.5;fill:#c86b00;fill-opacity:1;stroke:#cc6d00;stroke-width:0;stroke-miterlimit:4;stroke-opacity:1;stroke-dasharray:none"
       id="path2989-1-4-3-6-5"
       sodipodi:cx="-862.85712"
       sodipodi:cy="223.79076"
       sodipodi:rx="60"
       sodipodi:ry="60"
       d="m -802.85712,223.79076 c 0,33.13708 -26.86291,60 -60,60 -33.13708,0 -60,-26.86292 -60,-60 0,-33.13709 26.86292,-60 60,-60 33.13709,0 60,26.86291 60,60 z"
       inkscape:export-filename="C:\Users\Joshua\Documents\Visual Studio 2010\Projects\Three on Three Round Robin Scheduler\edit score icon.png"
       inkscape:export-xdpi="89.999992"
       inkscape:export-ydpi="89.999992" />
    <path
       sodipodi:type="arc"
       style="opacity:0.1;fill:#c86b00;fill-opacity:1;stroke:#cc6d00;stroke-width:0;stroke-miterlimit:4;stroke-opacity:1;stroke-dasharray:none"
       id="path2989-10-6-1"
       sodipodi:cx="-862.85712"
       sodipodi:cy="223.79076"
       sodipodi:rx="60"
       sodipodi:ry="60"
       d="m -802.85712,223.79076 c 0,33.13708 -26.86291,60 -60,60 -33.13708,0 -60,-26.86292 -60,-60 0,-33.13709 26.86292,-60 60,-60 33.13709,0 60,26.86291 60,60 z"
       transform="matrix(0.03061224,0,0,0.03061224,-637.30307,550.05995)" />
    <path
       transform="matrix(0.03061224,0,0,0.03061224,-637.30307,567.20282)"
       sodipodi:type="arc"
       style="opacity:0.5;fill:#c86b00;fill-opacity:1;stroke:#cc6d00;stroke-width:0;stroke-miterlimit:4;stroke-opacity:1;stroke-dasharray:none"
       id="path2989-1-5-0-4"
       sodipodi:cx="-862.85712"
       sodipodi:cy="223.79076"
       sodipodi:rx="60"
       sodipodi:ry="60"
       d="m -802.85712,223.79076 c 0,33.13708 -26.86291,60 -60,60 -33.13708,0 -60,-26.86292 -60,-60 0,-33.13709 26.86292,-60 60,-60 33.13709,0 60,26.86291 60,60 z"
       inkscape:export-filename="C:\Users\Joshua\Documents\Visual Studio 2010\Projects\Three on Three Round Robin Scheduler\edit score icon.png"
       inkscape:export-xdpi="89.999992"
       inkscape:export-ydpi="89.999992" />
    <path
       transform="matrix(0.03061224,0,0,0.03061224,-637.30307,558.63138)"
       sodipodi:type="arc"
       style="opacity:0.1;fill:#c86b00;fill-opacity:1;stroke:#cc6d00;stroke-width:0;stroke-miterlimit:4;stroke-opacity:1;stroke-dasharray:none"
       id="path2989-4-8-9-6"
       sodipodi:cx="-862.85712"
       sodipodi:cy="223.79076"
       sodipodi:rx="60"
       sodipodi:ry="60"
       d="m -802.85712,223.79076 c 0,33.13708 -26.86291,60 -60,60 -33.13708,0 -60,-26.86292 -60,-60 0,-33.13709 26.86292,-60 60,-60 33.13709,0 60,26.86291 60,60 z" />
    <path
       transform="matrix(0.03061224,0,0,0.03061224,-637.30307,541.48853)"
       sodipodi:type="arc"
       style="opacity:0.5;fill:#c86b00;fill-opacity:1;stroke:#cc6d00;stroke-width:0;stroke-miterlimit:4;stroke-opacity:1;stroke-dasharray:none"
       id="path2989-1-4-1-9-2"
       sodipodi:cx="-862.85712"
       sodipodi:cy="223.79076"
       sodipodi:rx="60"
       sodipodi:ry="60"
       d="m -802.85712,223.79076 c 0,33.13708 -26.86291,60 -60,60 -33.13708,0 -60,-26.86292 -60,-60 0,-33.13709 26.86292,-60 60,-60 33.13709,0 60,26.86291 60,60 z"
       inkscape:export-filename="C:\Users\Joshua\Documents\Visual Studio 2010\Projects\Three on Three Round Robin Scheduler\edit score icon.png"
       inkscape:export-xdpi="89.999992"
       inkscape:export-ydpi="89.999992" />
    <path
       sodipodi:type="arc"
       style="opacity:0.5;fill:#c86b00;fill-opacity:1;stroke:#cc6d00;stroke-width:0;stroke-miterlimit:4;stroke-opacity:1;stroke-dasharray:none"
       id="path2989-9-9-3-7"
       sodipodi:cx="-862.85712"
       sodipodi:cy="223.79076"
       sodipodi:rx="60"
       sodipodi:ry="60"
       d="m -802.85712,223.79076 c 0,33.13708 -26.86291,60 -60,60 -33.13708,0 -60,-26.86292 -60,-60 0,-33.13709 26.86292,-60 60,-60 33.13709,0 60,26.86291 60,60 z"
       transform="matrix(0.02996368,0,0,0.02996368,-629.29125,550.20509)"
       inkscape:export-filename="C:\Users\Joshua\Documents\Visual Studio 2010\Projects\Three on Three Round Robin Scheduler\edit score icon.png"
       inkscape:export-xdpi="89.999992"
       inkscape:export-ydpi="89.999992" />
    <path
       transform="matrix(0.03061224,0,0,0.03061224,-628.73165,567.20282)"
       sodipodi:type="arc"
       style="opacity:0.1;fill:#c86b00;fill-opacity:1;stroke:#cc6d00;stroke-width:0;stroke-miterlimit:4;stroke-opacity:1;stroke-dasharray:none"
       id="path2989-1-1-0-2-1"
       sodipodi:cx="-862.85712"
       sodipodi:cy="223.79076"
       sodipodi:rx="60"
       sodipodi:ry="60"
       d="m -802.85712,223.79076 c 0,33.13708 -26.86291,60 -60,60 -33.13708,0 -60,-26.86292 -60,-60 0,-33.13709 26.86292,-60 60,-60 33.13709,0 60,26.86291 60,60 z" />
    <path
       transform="matrix(0.03061224,0,0,0.03061224,-628.73165,558.63138)"
       sodipodi:type="arc"
       style="opacity:0.5;fill:#c86b00;fill-opacity:1;stroke:#cc6d00;stroke-width:0;stroke-miterlimit:4;stroke-opacity:1;stroke-dasharray:none"
       id="path2989-4-9-5-8-1"
       sodipodi:cx="-862.85712"
       sodipodi:cy="223.79076"
       sodipodi:rx="60"
       sodipodi:ry="60"
       d="m -802.85712,223.79076 c 0,33.13708 -26.86291,60 -60,60 -33.13708,0 -60,-26.86292 -60,-60 0,-33.13709 26.86292,-60 60,-60 33.13709,0 60,26.86291 60,60 z"
       inkscape:export-filename="C:\Users\Joshua\Documents\Visual Studio 2010\Projects\Three on Three Round Robin Scheduler\edit score icon.png"
       inkscape:export-xdpi="89.999992"
       inkscape:export-ydpi="89.999992" />
    <path
       transform="matrix(0.03061224,0,0,0.03061224,-628.73165,541.48853)"
       sodipodi:type="arc"
       style="opacity:0.1;fill:#c86b00;fill-opacity:1;stroke:#cc6d00;stroke-width:0;stroke-miterlimit:4;stroke-opacity:1;stroke-dasharray:none"
       id="path2989-1-4-3-4-0-3"
       sodipodi:cx="-862.85712"
       sodipodi:cy="223.79076"
       sodipodi:rx="60"
       sodipodi:ry="60"
       d="m -802.85712,223.79076 c 0,33.13708 -26.86291,60 -60,60 -33.13708,0 -60,-26.86292 -60,-60 0,-33.13709 26.86292,-60 60,-60 33.13709,0 60,26.86291 60,60 z" />
    <text
       xml:space="preserve"
       style="font-size:12.07151413px;font-style:normal;font-weight:normal;line-height:125%;letter-spacing:0px;word-spacing:0px;opacity:0.5;fill:#c86b00;fill-opacity:1;stroke:none;font-family:Bitstream Vera Sans"
       x="-734.00024"
       y="498.3508"
       id="text4201"
       sodipodi:linespacing="125%"
       transform="scale(0.91302612,1.0952589)"><tspan
         sodipodi:role="line"
         id="tspan4203"
         x="-734.00024"
         y="498.3508">SCORE</tspan></text>
  </g>
</svg>
