<?xml version="1.0" encoding="UTF-8" standalone="no"?>
<!-- Created with Inkscape (http://www.inkscape.org/) -->

<svg
   xmlns:dc="http://purl.org/dc/elements/1.1/"
   xmlns:cc="http://creativecommons.org/ns#"
   xmlns:rdf="http://www.w3.org/1999/02/22-rdf-syntax-ns#"
   xmlns:svg="http://www.w3.org/2000/svg"
   xmlns="http://www.w3.org/2000/svg"
   xmlns:sodipodi="http://sodipodi.sourceforge.net/DTD/sodipodi-0.dtd"
   xmlns:inkscape="http://www.inkscape.org/namespaces/inkscape"
   width="32.711536"
   height="32.000099"
   id="svg2"
   version="1.1"
   inkscape:version="0.48.0 r9654"
   sodipodi:docname="icons.svg">
  <defs
     id="defs4" />
  <sodipodi:namedview
     id="base"
     pagecolor="#ffffff"
     bordercolor="#666666"
     borderopacity="1.0"
     inkscape:pageopacity="0.0"
     inkscape:pageshadow="2"
     inkscape:zoom="2.8"
     inkscape:cx="117.05638"
     inkscape:cy="-24.095731"
     inkscape:document-units="px"
     inkscape:current-layer="layer1"
     showgrid="false"
     inkscape:window-width="1280"
     inkscape:window-height="748"
     inkscape:window-x="632"
     inkscape:window-y="1192"
     inkscape:window-maximized="1"
     fit-margin-top="0"
     fit-margin-left="0"
     fit-margin-right="0"
     fit-margin-bottom="0" />
  <metadata
     id="metadata7">
    <rdf:RDF>
      <cc:Work
         rdf:about="">
        <dc:format>image/svg+xml</dc:format>
        <dc:type
           rdf:resource="http://purl.org/dc/dcmitype/StillImage" />
        <dc:title></dc:title>
      </cc:Work>
    </rdf:RDF>
  </metadata>
  <g
     inkscape:label="Layer 1"
     inkscape:groupmode="layer"
     id="layer1"
     transform="translate(-35.398951,-582.91301)">
    <path
       style="fill:#000000;fill-opacity:1;stroke:none"
       d="m 40.836451,598.91311 0,6.75 -5.4375,0 4,4.625 4,4.625 4,-4.625 4,-4.625 -5.09375,0 0,-6.75 -5.46875,0 z"
       id="rect2985"
       inkscape:connector-curvature="0"
       inkscape:export-filename="C:\Users\Joshua\Documents\Visual Studio 2010\Projects\Three on Three Round Robin Scheduler\arrowdown.png"
       inkscape:export-xdpi="90"
       inkscape:export-ydpi="90" />
    <path
       style="fill:#000000;fill-opacity:1;stroke:none"
       d="m 40.836451,598.91301 0,-6.75 -5.4375,0 4,-4.625 4,-4.625 4,4.625 4,4.625 -5.09375,0 0,6.75 -5.46875,0 z"
       id="rect2985-6"
       inkscape:connector-curvature="0"
       inkscape:export-filename="C:\Users\Joshua\Documents\Visual Studio 2010\Projects\Three on Three Round Robin Scheduler\arrowup.png"
       inkscape:export-xdpi="90"
       inkscape:export-ydpi="90" />
    <path
       style="fill:#008000;fill-opacity:1;stroke:none"
       d="m 58.016738,598.48179 0,5.90625 -5.90625,0 0,4.1875 5.90625,0 0,5.90625 4.1875,0 0,-5.90625 5.90625,0 0,-4.1875 -5.90625,0 0,-5.90625 -4.1875,0 z"
       id="rect3782"
       inkscape:connector-curvature="0" />
    <path
       inkscape:connector-curvature="0"
       style="fill:#ff0000;fill-opacity:1;stroke:none"
       d="m 64.791604,582.91301 -4.681114,4.68112 -4.681115,-4.68112 -3.318887,3.31889 4.681115,4.6811 -4.681115,4.68112 3.318887,3.31889 4.681115,-4.68112 4.681114,4.68112 3.318884,-3.31889 -4.681114,-4.68112 4.681114,-4.6811 -3.318886,-3.31889 z"
       id="rect3782-1" />
  </g>
</svg>
